<svg xmlns="http://www.w3.org/2000/svg" xmlns:xlink="http://www.w3.org/1999/xlink" contentStyleType="text/css" height="538px" preserveAspectRatio="none" style="width:892px;height:538px;background:#FFFFFF;" version="1.1" viewBox="0 0 892 538" width="892px" zoomAndPan="magnify"><defs/><g><!--class CLIInterpreter--><g id="elem_CLIInterpreter"><rect codeLine="1" fill="#F1F1F1" height="105.2038" id="CLIInterpreter" rx="2.5" ry="2.5" style="stroke:#181818;stroke-width:0.5;" width="199.2633" x="463.5" y="7"/><ellipse cx="511.8418" cy="23" fill="#ADD1B2" rx="11" ry="11" style="stroke:#181818;stroke-width:1.0;"/><path d="M514.8106,28.6406 Q514.2325,28.9375 513.5918,29.0781 Q512.9512,29.2344 512.2481,29.2344 Q509.7481,29.2344 508.42,27.5938 Q507.1075,25.9375 507.1075,22.8125 Q507.1075,19.6875 508.42,18.0313 Q509.7481,16.375 512.2481,16.375 Q512.9512,16.375 513.5918,16.5313 Q514.2481,16.6875 514.8106,16.9844 L514.8106,19.7031 Q514.1856,19.125 513.5918,18.8594 Q512.9981,18.5781 512.3731,18.5781 Q511.0293,18.5781 510.3418,19.6563 Q509.6543,20.7188 509.6543,22.8125 Q509.6543,24.9063 510.3418,25.9844 Q511.0293,27.0469 512.3731,27.0469 Q512.9981,27.0469 513.5918,26.7813 Q514.1856,26.5 514.8106,25.9219 L514.8106,28.6406 Z " fill="#000000"/><text fill="#000000" font-family="sans-serif" font-size="14" lengthAdjust="spacing" textLength="94.0797" x="532.3418" y="28.432">CLIInterpreter</text><line style="stroke:#181818;stroke-width:0.5;" x1="464.5" x2="661.7633" y1="39" y2="39"/><rect fill="none" height="6" style="stroke:#C82930;stroke-width:1.0;" width="6" x="471.5" y="51.034"/><text fill="#000000" font-family="sans-serif" font-size="14" lengthAdjust="spacing" textLength="173.2633" x="483.5" y="57.9659">Environment environment</text><rect fill="none" height="6" style="stroke:#C82930;stroke-width:1.0;" width="6" x="471.5" y="70.1019"/><text fill="#000000" font-family="sans-serif" font-size="14" lengthAdjust="spacing" textLength="157.3734" x="483.5" y="77.0339">CommandParser parser</text><line style="stroke:#181818;stroke-width:0.5;" x1="464.5" x2="661.7633" y1="85.1358" y2="85.1358"/><ellipse cx="474.5" cy="100.1698" fill="#84BE84" rx="3" ry="3" style="stroke:#038048;stroke-width:1.0;"/><text fill="#000000" font-family="sans-serif" font-size="14" lengthAdjust="spacing" textLength="31.4859" x="483.5" y="104.1018">run()</text></g><!--class CommandParser--><g id="elem_CommandParser"><rect codeLine="7" fill="#F1F1F1" height="86.1358" id="CommandParser" rx="2.5" ry="2.5" style="stroke:#181818;stroke-width:0.5;" width="315.9529" x="233" y="191"/><ellipse cx="331.1747" cy="207" fill="#ADD1B2" rx="11" ry="11" style="stroke:#181818;stroke-width:1.0;"/><path d="M334.1434,212.6406 Q333.5653,212.9375 332.9247,213.0781 Q332.284,213.2344 331.5809,213.2344 Q329.0809,213.2344 327.7528,211.5938 Q326.4403,209.9375 326.4403,206.8125 Q326.4403,203.6875 327.7528,202.0313 Q329.0809,200.375 331.5809,200.375 Q332.284,200.375 332.9247,200.5313 Q333.5809,200.6875 334.1434,200.9844 L334.1434,203.7031 Q333.5184,203.125 332.9247,202.8594 Q332.3309,202.5781 331.7059,202.5781 Q330.3622,202.5781 329.6747,203.6563 Q328.9872,204.7188 328.9872,206.8125 Q328.9872,208.9063 329.6747,209.9844 Q330.3622,211.0469 331.7059,211.0469 Q332.3309,211.0469 332.9247,210.7813 Q333.5184,210.5 334.1434,209.9219 L334.1434,212.6406 Z " fill="#000000"/><text fill="#000000" font-family="sans-serif" font-size="14" lengthAdjust="spacing" textLength="111.1036" x="351.6747" y="212.432">CommandParser</text><line style="stroke:#181818;stroke-width:0.5;" x1="234" x2="547.9529" y1="223" y2="223"/><line style="stroke:#181818;stroke-width:0.5;" x1="234" x2="547.9529" y1="231" y2="231"/><ellipse cx="244" cy="246.034" fill="#84BE84" rx="3" ry="3" style="stroke:#038048;stroke-width:1.0;"/><text fill="#000000" font-family="sans-serif" font-size="14" lengthAdjust="spacing" textLength="198.8692" x="253" y="249.9659">parse(String input): Command</text><ellipse cx="244" cy="265.1019" fill="#84BE84" rx="3" ry="3" style="stroke:#038048;stroke-width:1.0;"/><text fill="#000000" font-family="sans-serif" font-size="14" lengthAdjust="spacing" textLength="289.9529" x="253" y="269.0339">parsePipeline(String input): List&lt;Command&gt;</text></g><!--class Environment--><g id="elem_Environment"><rect codeLine="12" fill="#F1F1F1" height="124.2717" id="Environment" rx="2.5" ry="2.5" style="stroke:#181818;stroke-width:0.5;" width="301.6169" x="584" y="172"/><ellipse cx="688.1806" cy="188" fill="#ADD1B2" rx="11" ry="11" style="stroke:#181818;stroke-width:1.0;"/><path d="M691.1494,193.6406 Q690.5713,193.9375 689.9306,194.0781 Q689.29,194.2344 688.5869,194.2344 Q686.0869,194.2344 684.7588,192.5938 Q683.4463,190.9375 683.4463,187.8125 Q683.4463,184.6875 684.7588,183.0313 Q686.0869,181.375 688.5869,181.375 Q689.29,181.375 689.9306,181.5313 Q690.5869,181.6875 691.1494,181.9844 L691.1494,184.7031 Q690.5244,184.125 689.9306,183.8594 Q689.3369,183.5781 688.7119,183.5781 Q687.3681,183.5781 686.6806,184.6563 Q685.9931,185.7188 685.9931,187.8125 Q685.9931,189.9063 686.6806,190.9844 Q687.3681,192.0469 688.7119,192.0469 Q689.3369,192.0469 689.9306,191.7813 Q690.5244,191.5 691.1494,190.9219 L691.1494,193.6406 Z " fill="#000000"/><text fill="#000000" font-family="sans-serif" font-size="14" lengthAdjust="spacing" textLength="84.7557" x="708.6806" y="193.432">Environment</text><line style="stroke:#181818;stroke-width:0.5;" x1="585" x2="884.6169" y1="204" y2="204"/><line style="stroke:#181818;stroke-width:0.5;" x1="585" x2="884.6169" y1="212" y2="212"/><ellipse cx="595" cy="227.034" fill="#84BE84" rx="3" ry="3" style="stroke:#038048;stroke-width:1.0;"/><text fill="#000000" font-family="sans-serif" font-size="14" lengthAdjust="spacing" textLength="247.757" x="604" y="230.9659">setVariable(String name, String value)</text><ellipse cx="595" cy="246.1019" fill="#84BE84" rx="3" ry="3" style="stroke:#038048;stroke-width:1.0;"/><text fill="#000000" font-family="sans-serif" font-size="14" lengthAdjust="spacing" textLength="210.8952" x="604" y="250.0339">getVariable(String name): String</text><ellipse cx="595" cy="265.1698" fill="#84BE84" rx="3" ry="3" style="stroke:#038048;stroke-width:1.0;"/><text fill="#000000" font-family="sans-serif" font-size="14" lengthAdjust="spacing" textLength="193.0453" x="604" y="269.1018">getWorkingDirectory(): String</text><ellipse cx="595" cy="284.2377" fill="#84BE84" rx="3" ry="3" style="stroke:#038048;stroke-width:1.0;"/><text fill="#000000" font-family="sans-serif" font-size="14" lengthAdjust="spacing" textLength="275.6169" x="604" y="288.1697">setWorkingDirectory(String newDirectory)</text></g><!--class Command--><g id="elem_Command"><rect codeLine="19" fill="#F1F1F1" height="67.0679" id="Command" rx="2.5" ry="2.5" style="stroke:#181818;stroke-width:0.5;" width="691.0117" x="45.5" y="356"/><ellipse cx="354.3739" cy="372" fill="#B4A7E5" rx="11" ry="11" style="stroke:#181818;stroke-width:1.0;"/><path d="M350.2958,367.7656 L350.2958,365.6094 L357.6864,365.6094 L357.6864,367.7656 L355.2177,367.7656 L355.2177,375.8438 L357.6864,375.8438 L357.6864,378 L350.2958,378 L350.2958,375.8438 L352.7646,375.8438 L352.7646,367.7656 L350.2958,367.7656 Z " fill="#000000"/><text fill="#000000" font-family="sans-serif" font-size="14" font-style="italic" lengthAdjust="spacing" textLength="64.7638" x="374.8739" y="377.432">Command</text><line style="stroke:#181818;stroke-width:0.5;" x1="46.5" x2="735.5117" y1="388" y2="388"/><line style="stroke:#181818;stroke-width:0.5;" x1="46.5" x2="735.5117" y1="396" y2="396"/><ellipse cx="56.5" cy="411.034" fill="#84BE84" rx="3" ry="3" style="stroke:#038048;stroke-width:1.0;"/><text fill="#000000" font-family="sans-serif" font-size="14" lengthAdjust="spacing" textLength="665.0117" x="65.5" y="414.9659">execute(Environment environment, InputStream input, OutputStream output, List&lt;String&gt; args): void</text></g><!--class EchoCommand--><g id="elem_EchoCommand"><rect codeLine="23" fill="#F1F1F1" height="48" id="EchoCommand" rx="2.5" ry="2.5" style="stroke:#181818;stroke-width:0.5;" width="132.2396" x="7" y="483"/><ellipse cx="22" cy="499" fill="#ADD1B2" rx="11" ry="11" style="stroke:#181818;stroke-width:1.0;"/><path d="M24.9688,504.6406 Q24.3906,504.9375 23.75,505.0781 Q23.1094,505.2344 22.4063,505.2344 Q19.9063,505.2344 18.5781,503.5938 Q17.2656,501.9375 17.2656,498.8125 Q17.2656,495.6875 18.5781,494.0313 Q19.9063,492.375 22.4063,492.375 Q23.1094,492.375 23.75,492.5313 Q24.4063,492.6875 24.9688,492.9844 L24.9688,495.7031 Q24.3438,495.125 23.75,494.8594 Q23.1563,494.5781 22.5313,494.5781 Q21.1875,494.5781 20.5,495.6563 Q19.8125,496.7188 19.8125,498.8125 Q19.8125,500.9063 20.5,501.9844 Q21.1875,503.0469 22.5313,503.0469 Q23.1563,503.0469 23.75,502.7813 Q24.3438,502.5 24.9688,501.9219 L24.9688,504.6406 Z " fill="#000000"/><text fill="#000000" font-family="sans-serif" font-size="14" lengthAdjust="spacing" textLength="100.2396" x="36" y="504.432">EchoCommand</text><line style="stroke:#181818;stroke-width:0.5;" x1="8" x2="138.2396" y1="515" y2="515"/><line style="stroke:#181818;stroke-width:0.5;" x1="8" x2="138.2396" y1="523" y2="523"/></g><!--class CatCommand--><g id="elem_CatCommand"><rect codeLine="25" fill="#F1F1F1" height="48" id="CatCommand" rx="2.5" ry="2.5" style="stroke:#181818;stroke-width:0.5;" width="122.3697" x="174" y="483"/><ellipse cx="189" cy="499" fill="#ADD1B2" rx="11" ry="11" style="stroke:#181818;stroke-width:1.0;"/><path d="M191.9688,504.6406 Q191.3906,504.9375 190.75,505.0781 Q190.1094,505.2344 189.4063,505.2344 Q186.9063,505.2344 185.5781,503.5938 Q184.2656,501.9375 184.2656,498.8125 Q184.2656,495.6875 185.5781,494.0313 Q186.9063,492.375 189.4063,492.375 Q190.1094,492.375 190.75,492.5313 Q191.4063,492.6875 191.9688,492.9844 L191.9688,495.7031 Q191.3438,495.125 190.75,494.8594 Q190.1563,494.5781 189.5313,494.5781 Q188.1875,494.5781 187.5,495.6563 Q186.8125,496.7188 186.8125,498.8125 Q186.8125,500.9063 187.5,501.9844 Q188.1875,503.0469 189.5313,503.0469 Q190.1563,503.0469 190.75,502.7813 Q191.3438,502.5 191.9688,501.9219 L191.9688,504.6406 Z " fill="#000000"/><text fill="#000000" font-family="sans-serif" font-size="14" lengthAdjust="spacing" textLength="90.3697" x="203" y="504.432">CatCommand</text><line style="stroke:#181818;stroke-width:0.5;" x1="175" x2="295.3697" y1="515" y2="515"/><line style="stroke:#181818;stroke-width:0.5;" x1="175" x2="295.3697" y1="523" y2="523"/></g><!--class WcCommand--><g id="elem_WcCommand"><rect codeLine="27" fill="#F1F1F1" height="48" id="WcCommand" rx="2.5" ry="2.5" style="stroke:#181818;stroke-width:0.5;" width="120.3537" x="331" y="483"/><ellipse cx="346" cy="499" fill="#ADD1B2" rx="11" ry="11" style="stroke:#181818;stroke-width:1.0;"/><path d="M348.9688,504.6406 Q348.3906,504.9375 347.75,505.0781 Q347.1094,505.2344 346.4063,505.2344 Q343.9063,505.2344 342.5781,503.5938 Q341.2656,501.9375 341.2656,498.8125 Q341.2656,495.6875 342.5781,494.0313 Q343.9063,492.375 346.4063,492.375 Q347.1094,492.375 347.75,492.5313 Q348.4063,492.6875 348.9688,492.9844 L348.9688,495.7031 Q348.3438,495.125 347.75,494.8594 Q347.1563,494.5781 346.5313,494.5781 Q345.1875,494.5781 344.5,495.6563 Q343.8125,496.7188 343.8125,498.8125 Q343.8125,500.9063 344.5,501.9844 Q345.1875,503.0469 346.5313,503.0469 Q347.1563,503.0469 347.75,502.7813 Q348.3438,502.5 348.9688,501.9219 L348.9688,504.6406 Z " fill="#000000"/><text fill="#000000" font-family="sans-serif" font-size="14" lengthAdjust="spacing" textLength="88.3537" x="360" y="504.432">WcCommand</text><line style="stroke:#181818;stroke-width:0.5;" x1="332" x2="450.3537" y1="515" y2="515"/><line style="stroke:#181818;stroke-width:0.5;" x1="332" x2="450.3537" y1="523" y2="523"/></g><!--class PwdCommand--><g id="elem_PwdCommand"><rect codeLine="29" fill="#F1F1F1" height="48" id="PwdCommand" rx="2.5" ry="2.5" style="stroke:#181818;stroke-width:0.5;" width="128.6976" x="486.5" y="483"/><ellipse cx="501.5" cy="499" fill="#ADD1B2" rx="11" ry="11" style="stroke:#181818;stroke-width:1.0;"/><path d="M504.4688,504.6406 Q503.8906,504.9375 503.25,505.0781 Q502.6094,505.2344 501.9063,505.2344 Q499.4063,505.2344 498.0781,503.5938 Q496.7656,501.9375 496.7656,498.8125 Q496.7656,495.6875 498.0781,494.0313 Q499.4063,492.375 501.9063,492.375 Q502.6094,492.375 503.25,492.5313 Q503.9063,492.6875 504.4688,492.9844 L504.4688,495.7031 Q503.8438,495.125 503.25,494.8594 Q502.6563,494.5781 502.0313,494.5781 Q500.6875,494.5781 500,495.6563 Q499.3125,496.7188 499.3125,498.8125 Q499.3125,500.9063 500,501.9844 Q500.6875,503.0469 502.0313,503.0469 Q502.6563,503.0469 503.25,502.7813 Q503.8438,502.5 504.4688,501.9219 L504.4688,504.6406 Z " fill="#000000"/><text fill="#000000" font-family="sans-serif" font-size="14" lengthAdjust="spacing" textLength="96.6976" x="515.5" y="504.432">PwdCommand</text><line style="stroke:#181818;stroke-width:0.5;" x1="487.5" x2="614.1976" y1="515" y2="515"/><line style="stroke:#181818;stroke-width:0.5;" x1="487.5" x2="614.1976" y1="523" y2="523"/></g><!--class ExitCommand--><g id="elem_ExitCommand"><rect codeLine="31" fill="#F1F1F1" height="48" id="ExitCommand" rx="2.5" ry="2.5" style="stroke:#181818;stroke-width:0.5;" width="124.4697" x="651" y="483"/><ellipse cx="666" cy="499" fill="#ADD1B2" rx="11" ry="11" style="stroke:#181818;stroke-width:1.0;"/><path d="M668.9688,504.6406 Q668.3906,504.9375 667.75,505.0781 Q667.1094,505.2344 666.4063,505.2344 Q663.9063,505.2344 662.5781,503.5938 Q661.2656,501.9375 661.2656,498.8125 Q661.2656,495.6875 662.5781,494.0313 Q663.9063,492.375 666.4063,492.375 Q667.1094,492.375 667.75,492.5313 Q668.4063,492.6875 668.9688,492.9844 L668.9688,495.7031 Q668.3438,495.125 667.75,494.8594 Q667.1563,494.5781 666.5313,494.5781 Q665.1875,494.5781 664.5,495.6563 Q663.8125,496.7188 663.8125,498.8125 Q663.8125,500.9063 664.5,501.9844 Q665.1875,503.0469 666.5313,503.0469 Q667.1563,503.0469 667.75,502.7813 Q668.3438,502.5 668.9688,501.9219 L668.9688,504.6406 Z " fill="#000000"/><text fill="#000000" font-family="sans-serif" font-size="14" lengthAdjust="spacing" textLength="92.4697" x="680" y="504.432">ExitCommand</text><line style="stroke:#181818;stroke-width:0.5;" x1="652" x2="774.4697" y1="515" y2="515"/><line style="stroke:#181818;stroke-width:0.5;" x1="652" x2="774.4697" y1="523" y2="523"/></g><!--link CLIInterpreter to CommandParser--><g id="link_CLIInterpreter_CommandParser"><path codeLine="33" d="M511.39,112.26 C486.36,137.36 460.9064,162.8911 437.2764,186.5911 " fill="none" id="CLIInterpreter-to-CommandParser" style="stroke:#181818;stroke-width:1.0;"/><polygon fill="#181818" points="433.04,190.84,442.2271,187.2909,436.5703,187.2992,436.5619,181.6424,433.04,190.84" style="stroke:#181818;stroke-width:1.0;"/></g><!--link CLIInterpreter to Environment--><g id="link_CLIInterpreter_Environment"><path codeLine="34" d="M614.61,112.26 C633.31,131.01 650.3739,148.1208 669.8039,167.6108 " fill="none" id="CLIInterpreter-to-Environment" style="stroke:#181818;stroke-width:1.0;"/><polygon fill="#181818" points="674.04,171.86,670.5186,162.6622,670.5099,168.319,664.8531,168.3103,674.04,171.86" style="stroke:#181818;stroke-width:1.0;"/></g><!--link CommandParser to Command--><g id="link_CommandParser_Command"><path codeLine="35" d="M391,277.35 C391,302.02 391,326.67 391,349.53 " fill="none" id="CommandParser-to-Command" style="stroke:#181818;stroke-width:1.0;"/><polygon fill="#181818" points="391,355.53,395,346.53,391,350.53,387,346.53,391,355.53" style="stroke:#181818;stroke-width:1.0;"/></g><!--reverse link Command to EchoCommand--><g id="link_Command_EchoCommand"><path codeLine="36" d="M284.2315,429.2752 C231.7015,448.3552 183.59,465.83 136.41,482.97 " fill="none" id="Command-backto-EchoCommand" style="stroke:#181818;stroke-width:1.0;"/><polygon fill="none" points="301.15,423.13,282.1831,423.6357,286.2799,434.9147,301.15,423.13" style="stroke:#181818;stroke-width:1.0;"/></g><!--reverse link Command to CatCommand--><g id="link_Command_CatCommand"><path codeLine="37" d="M332.2438,434.0011 C306.6638,452.9411 289.56,465.61 266.51,482.67 " fill="none" id="Command-backto-CatCommand" style="stroke:#181818;stroke-width:1.0;"/><polygon fill="none" points="346.71,423.29,328.6734,429.179,335.8141,438.8232,346.71,423.29" style="stroke:#181818;stroke-width:1.0;"/></g><!--reverse link Command to WcCommand--><g id="link_Command_WcCommand"><path codeLine="38" d="M391,441.29 C391,460.23 391,465.61 391,482.67 " fill="none" id="Command-backto-WcCommand" style="stroke:#181818;stroke-width:1.0;"/><polygon fill="none" points="391,423.29,385,441.29,397,441.29,391,423.29" style="stroke:#181818;stroke-width:1.0;"/></g><!--reverse link Command to PwdCommand--><g id="link_Command_PwdCommand"><path codeLine="39" d="M451.0152,433.8248 C477.2552,452.7648 495.04,465.61 518.68,482.67 " fill="none" id="Command-backto-PwdCommand" style="stroke:#181818;stroke-width:1.0;"/><polygon fill="none" points="436.42,423.29,447.5036,438.6898,454.5267,428.9597,436.42,423.29" style="stroke:#181818;stroke-width:1.0;"/></g><!--reverse link Command to ExitCommand--><g id="link_Command_ExitCommand"><path codeLine="40" d="M498.9225,429.2089 C552.8525,448.5589 602.87,466.5 650.79,483.68 " fill="none" id="Command-backto-ExitCommand" style="stroke:#181818;stroke-width:1.0;"/><polygon fill="none" points="481.98,423.13,496.8961,434.8564,500.9488,423.5614,481.98,423.13" style="stroke:#181818;stroke-width:1.0;"/></g><!--SRC=[TLBBReCm4Bpp5Ni45NwWYhYaEI15AbAbvkoQBRKADh8DIPJqt-i0nZQb782TdNtDBcs8Kh0_5WNNA3k9vWst2CoJmO4FJ0hU8jU0xd_sxaNR4bwLH2eJqusVqVK4ikTn4lr44PtI1ypRJ1eZuZSj6Q-1yQxNoREb-fIITTWm_eTwP4hlPdxkYlbDsr8AzJkHZ7mqInPEManXDWRIz9ZCv7gRR2fEbgETXFmsm0kJIBMGrtZDKHiScnBF2pPAnHuB-2GKhGPBztX1sckC_rb72iL34PCNIJkfay9hhnqcHYET59lgvq1ahKo_Ws2L9nxz4dO5Tdb4hv0JNG7bkLeXXmjpKQlhoh8yl8WjWZTh59wF5suziBjdMT1xuF0c270tHm1xquJvlPb-0G00]--></g></svg>