<svg xmlns="http://www.w3.org/2000/svg" xmlns:xlink="http://www.w3.org/1999/xlink" contentStyleType="text/css" height="516px" preserveAspectRatio="none" style="width:994px;height:516px;background:#FFFFFF;" version="1.1" viewBox="0 0 994 516" width="994px" zoomAndPan="magnify"><defs/><g><!--class CLIInterpreter--><g id="elem_CLIInterpreter"><rect codeLine="1" fill="#F1F1F1" height="96.8906" id="CLIInterpreter" rx="2.5" ry="2.5" style="stroke:#181818;stroke-width:0.5;" width="209.6201" x="552.16" y="7"/><ellipse cx="603.8807" cy="23" fill="#ADD1B2" rx="11" ry="11" style="stroke:#181818;stroke-width:1.0;"/><path d="M606.8495,28.6406 Q606.2713,28.9375 605.6307,29.0781 Q604.9901,29.2344 604.287,29.2344 Q601.787,29.2344 600.4588,27.5938 Q599.1463,25.9375 599.1463,22.8125 Q599.1463,19.6875 600.4588,18.0313 Q601.787,16.375 604.287,16.375 Q604.9901,16.375 605.6307,16.5313 Q606.287,16.6875 606.8495,16.9844 L606.8495,19.7031 Q606.2245,19.125 605.6307,18.8594 Q605.037,18.5781 604.412,18.5781 Q603.0682,18.5781 602.3807,19.6563 Q601.6932,20.7188 601.6932,22.8125 Q601.6932,24.9063 602.3807,25.9844 Q603.0682,27.0469 604.412,27.0469 Q605.037,27.0469 605.6307,26.7813 Q606.2245,26.5 606.8495,25.9219 L606.8495,28.6406 Z " fill="#000000"/><text fill="#000000" font-family="sans-serif" font-size="14" lengthAdjust="spacing" textLength="97.6787" x="624.3807" y="27.8467">CLIInterpreter</text><line style="stroke:#181818;stroke-width:0.5;" x1="553.16" x2="760.7801" y1="39" y2="39"/><rect fill="none" height="6" style="stroke:#C82930;stroke-width:1.0;" width="6" x="560.16" y="49.6484"/><text fill="#000000" font-family="sans-serif" font-size="14" lengthAdjust="spacing" textLength="183.6201" x="572.16" y="55.9951">Environment environment</text><rect fill="none" height="6" style="stroke:#C82930;stroke-width:1.0;" width="6" x="560.16" y="65.9453"/><text fill="#000000" font-family="sans-serif" font-size="14" lengthAdjust="spacing" textLength="173.0244" x="572.16" y="72.292">CommandsParser parser</text><line style="stroke:#181818;stroke-width:0.5;" x1="553.16" x2="760.7801" y1="79.5938" y2="79.5938"/><ellipse cx="563.16" cy="93.2422" fill="#84BE84" rx="3" ry="3" style="stroke:#038048;stroke-width:1.0;"/><text fill="#000000" font-family="sans-serif" font-size="14" lengthAdjust="spacing" textLength="34.4258" x="572.16" y="96.5889">run()</text></g><!--class CommandsParser--><g id="elem_CommandsParser"><rect codeLine="7" fill="#F1F1F1" height="64.2969" id="CommandsParser" rx="2.5" ry="2.5" style="stroke:#181818;stroke-width:0.5;" width="287.3516" x="344.29" y="188.34"/><ellipse cx="421.8711" cy="204.34" fill="#ADD1B2" rx="11" ry="11" style="stroke:#181818;stroke-width:1.0;"/><path d="M424.8398,209.9806 Q424.2617,210.2775 423.6211,210.4181 Q422.9804,210.5744 422.2773,210.5744 Q419.7773,210.5744 418.4492,208.9337 Q417.1367,207.2775 417.1367,204.1525 Q417.1367,201.0275 418.4492,199.3712 Q419.7773,197.715 422.2773,197.715 Q422.9804,197.715 423.6211,197.8712 Q424.2773,198.0275 424.8398,198.3244 L424.8398,201.0431 Q424.2148,200.465 423.6211,200.1994 Q423.0273,199.9181 422.4023,199.9181 Q421.0586,199.9181 420.3711,200.9962 Q419.6836,202.0587 419.6836,204.1525 Q419.6836,206.2462 420.3711,207.3244 Q421.0586,208.3869 422.4023,208.3869 Q423.0273,208.3869 423.6211,208.1212 Q424.2148,207.84 424.8398,207.2619 L424.8398,209.9806 Z " fill="#000000"/><text fill="#000000" font-family="sans-serif" font-size="14" lengthAdjust="spacing" textLength="123.6895" x="442.3711" y="209.1867">CommandsParser</text><line style="stroke:#181818;stroke-width:0.5;" x1="345.29" x2="630.6416" y1="220.34" y2="220.34"/><line style="stroke:#181818;stroke-width:0.5;" x1="345.29" x2="630.6416" y1="228.34" y2="228.34"/><ellipse cx="355.29" cy="241.9884" fill="#84BE84" rx="3" ry="3" style="stroke:#038048;stroke-width:1.0;"/><text fill="#000000" font-family="sans-serif" font-size="14" lengthAdjust="spacing" textLength="261.3516" x="364.29" y="245.3351">parse(String input): List&lt;Command&gt;</text></g><!--class Environment--><g id="elem_Environment"><rect codeLine="11" fill="#F1F1F1" height="113.1875" id="Environment" rx="2.5" ry="2.5" style="stroke:#181818;stroke-width:0.5;" width="321.0732" x="666.43" y="163.9"/><ellipse cx="777.866" cy="179.9" fill="#ADD1B2" rx="11" ry="11" style="stroke:#181818;stroke-width:1.0;"/><path d="M780.8348,185.5406 Q780.2567,185.8375 779.616,185.9781 Q778.9754,186.1344 778.2723,186.1344 Q775.7723,186.1344 774.4442,184.4937 Q773.1317,182.8375 773.1317,179.7125 Q773.1317,176.5875 774.4442,174.9312 Q775.7723,173.275 778.2723,173.275 Q778.9754,173.275 779.616,173.4312 Q780.2723,173.5875 780.8348,173.8844 L780.8348,176.6031 Q780.2098,176.025 779.616,175.7594 Q779.0223,175.4781 778.3973,175.4781 Q777.0535,175.4781 776.366,176.5562 Q775.6785,177.6187 775.6785,179.7125 Q775.6785,181.8062 776.366,182.8844 Q777.0535,183.9469 778.3973,183.9469 Q779.0223,183.9469 779.616,183.6812 Q780.2098,183.4 780.8348,182.8219 L780.8348,185.5406 Z " fill="#000000"/><text fill="#000000" font-family="sans-serif" font-size="14" lengthAdjust="spacing" textLength="89.7012" x="798.366" y="184.7467">Environment</text><line style="stroke:#181818;stroke-width:0.5;" x1="667.43" x2="986.5032" y1="195.9" y2="195.9"/><line style="stroke:#181818;stroke-width:0.5;" x1="667.43" x2="986.5032" y1="203.9" y2="203.9"/><ellipse cx="677.43" cy="217.5484" fill="#84BE84" rx="3" ry="3" style="stroke:#038048;stroke-width:1.0;"/><text fill="#000000" font-family="sans-serif" font-size="14" lengthAdjust="spacing" textLength="269.3975" x="686.43" y="220.8951">setVariable(String name, String value)</text><ellipse cx="677.43" cy="233.8453" fill="#84BE84" rx="3" ry="3" style="stroke:#038048;stroke-width:1.0;"/><text fill="#000000" font-family="sans-serif" font-size="14" lengthAdjust="spacing" textLength="228.5664" x="686.43" y="237.192">getVariable(String name): String</text><ellipse cx="677.43" cy="250.1422" fill="#84BE84" rx="3" ry="3" style="stroke:#038048;stroke-width:1.0;"/><text fill="#000000" font-family="sans-serif" font-size="14" lengthAdjust="spacing" textLength="207.6143" x="686.43" y="253.4889">getWorkingDirectory(): String</text><ellipse cx="677.43" cy="266.4391" fill="#84BE84" rx="3" ry="3" style="stroke:#038048;stroke-width:1.0;"/><text fill="#000000" font-family="sans-serif" font-size="14" lengthAdjust="spacing" textLength="295.0732" x="686.43" y="269.7857">setWorkingDirectory(String newDirectory)</text></g><!--class Command--><g id="elem_Command"><rect codeLine="18" fill="#F1F1F1" height="64.2969" id="Command" rx="2.5" ry="2.5" style="stroke:#181818;stroke-width:0.5;" width="744.7988" x="115.57" y="337.08"/><ellipse cx="447.7419" cy="353.08" fill="#B4A7E5" rx="11" ry="11" style="stroke:#181818;stroke-width:1.0;"/><path d="M443.6638,348.8456 L443.6638,346.6894 L451.0544,346.6894 L451.0544,348.8456 L448.5856,348.8456 L448.5856,356.9238 L451.0544,356.9238 L451.0544,359.08 L443.6638,359.08 L443.6638,356.9238 L446.1325,356.9238 L446.1325,348.8456 L443.6638,348.8456 Z " fill="#000000"/><text fill="#000000" font-family="sans-serif" font-size="14" font-style="italic" lengthAdjust="spacing" textLength="71.9551" x="468.2419" y="357.9267">Command</text><line style="stroke:#181818;stroke-width:0.5;" x1="116.57" x2="859.3688" y1="369.08" y2="369.08"/><line style="stroke:#181818;stroke-width:0.5;" x1="116.57" x2="859.3688" y1="377.08" y2="377.08"/><ellipse cx="126.57" cy="390.7284" fill="#84BE84" rx="3" ry="3" style="stroke:#038048;stroke-width:1.0;"/><text fill="#000000" font-family="sans-serif" font-size="14" lengthAdjust="spacing" textLength="718.7988" x="135.57" y="394.0751">execute(Environment environment, InputStream input, OutputStream output, List&lt;String&gt; args): void</text></g><!--class EchoCommand--><g id="elem_EchoCommand"><rect codeLine="22" fill="#F1F1F1" height="48" id="EchoCommand" rx="2.5" ry="2.5" style="stroke:#181818;stroke-width:0.5;" width="137.9365" x="7" y="461.38"/><ellipse cx="22" cy="477.38" fill="#ADD1B2" rx="11" ry="11" style="stroke:#181818;stroke-width:1.0;"/><path d="M24.9688,483.0206 Q24.3906,483.3175 23.75,483.4581 Q23.1094,483.6144 22.4063,483.6144 Q19.9063,483.6144 18.5781,481.9738 Q17.2656,480.3175 17.2656,477.1925 Q17.2656,474.0675 18.5781,472.4113 Q19.9063,470.755 22.4063,470.755 Q23.1094,470.755 23.75,470.9113 Q24.4063,471.0675 24.9688,471.3644 L24.9688,474.0831 Q24.3438,473.505 23.75,473.2394 Q23.1563,472.9581 22.5313,472.9581 Q21.1875,472.9581 20.5,474.0363 Q19.8125,475.0988 19.8125,477.1925 Q19.8125,479.2863 20.5,480.3644 Q21.1875,481.4269 22.5313,481.4269 Q23.1563,481.4269 23.75,481.1613 Q24.3438,480.88 24.9688,480.3019 L24.9688,483.0206 Z " fill="#000000"/><text fill="#000000" font-family="sans-serif" font-size="14" lengthAdjust="spacing" textLength="105.9365" x="36" y="482.2267">EchoCommand</text><line style="stroke:#181818;stroke-width:0.5;" x1="8" x2="143.9365" y1="493.38" y2="493.38"/><line style="stroke:#181818;stroke-width:0.5;" x1="8" x2="143.9365" y1="501.38" y2="501.38"/></g><!--class CatCommand--><g id="elem_CatCommand"><rect codeLine="24" fill="#F1F1F1" height="48" id="CatCommand" rx="2.5" ry="2.5" style="stroke:#181818;stroke-width:0.5;" width="127.7988" x="180.07" y="461.38"/><ellipse cx="195.07" cy="477.38" fill="#ADD1B2" rx="11" ry="11" style="stroke:#181818;stroke-width:1.0;"/><path d="M198.0388,483.0206 Q197.4606,483.3175 196.82,483.4581 Q196.1794,483.6144 195.4763,483.6144 Q192.9763,483.6144 191.6481,481.9738 Q190.3356,480.3175 190.3356,477.1925 Q190.3356,474.0675 191.6481,472.4113 Q192.9763,470.755 195.4763,470.755 Q196.1794,470.755 196.82,470.9113 Q197.4763,471.0675 198.0388,471.3644 L198.0388,474.0831 Q197.4138,473.505 196.82,473.2394 Q196.2263,472.9581 195.6013,472.9581 Q194.2575,472.9581 193.57,474.0363 Q192.8825,475.0988 192.8825,477.1925 Q192.8825,479.2863 193.57,480.3644 Q194.2575,481.4269 195.6013,481.4269 Q196.2263,481.4269 196.82,481.1613 Q197.4138,480.88 198.0388,480.3019 L198.0388,483.0206 Z " fill="#000000"/><text fill="#000000" font-family="sans-serif" font-size="14" lengthAdjust="spacing" textLength="95.7988" x="209.07" y="482.2267">CatCommand</text><line style="stroke:#181818;stroke-width:0.5;" x1="181.07" x2="306.8688" y1="493.38" y2="493.38"/><line style="stroke:#181818;stroke-width:0.5;" x1="181.07" x2="306.8688" y1="501.38" y2="501.38"/></g><!--class WcCommand--><g id="elem_WcCommand"><rect codeLine="26" fill="#F1F1F1" height="48" id="WcCommand" rx="2.5" ry="2.5" style="stroke:#181818;stroke-width:0.5;" width="125.4951" x="343.22" y="461.38"/><ellipse cx="358.22" cy="477.38" fill="#ADD1B2" rx="11" ry="11" style="stroke:#181818;stroke-width:1.0;"/><path d="M361.1888,483.0206 Q360.6106,483.3175 359.97,483.4581 Q359.3294,483.6144 358.6263,483.6144 Q356.1263,483.6144 354.7981,481.9738 Q353.4856,480.3175 353.4856,477.1925 Q353.4856,474.0675 354.7981,472.4113 Q356.1263,470.755 358.6263,470.755 Q359.3294,470.755 359.97,470.9113 Q360.6263,471.0675 361.1888,471.3644 L361.1888,474.0831 Q360.5638,473.505 359.97,473.2394 Q359.3763,472.9581 358.7513,472.9581 Q357.4075,472.9581 356.72,474.0363 Q356.0325,475.0988 356.0325,477.1925 Q356.0325,479.2863 356.72,480.3644 Q357.4075,481.4269 358.7513,481.4269 Q359.3763,481.4269 359.97,481.1613 Q360.5638,480.88 361.1888,480.3019 L361.1888,483.0206 Z " fill="#000000"/><text fill="#000000" font-family="sans-serif" font-size="14" lengthAdjust="spacing" textLength="93.4951" x="372.22" y="482.2267">WcCommand</text><line style="stroke:#181818;stroke-width:0.5;" x1="344.22" x2="467.7151" y1="493.38" y2="493.38"/><line style="stroke:#181818;stroke-width:0.5;" x1="344.22" x2="467.7151" y1="501.38" y2="501.38"/></g><!--class PwdCommand--><g id="elem_PwdCommand"><rect codeLine="28" fill="#F1F1F1" height="48" id="PwdCommand" rx="2.5" ry="2.5" style="stroke:#181818;stroke-width:0.5;" width="132.7344" x="503.6" y="461.38"/><ellipse cx="518.6" cy="477.38" fill="#ADD1B2" rx="11" ry="11" style="stroke:#181818;stroke-width:1.0;"/><path d="M521.5688,483.0206 Q520.9906,483.3175 520.35,483.4581 Q519.7094,483.6144 519.0063,483.6144 Q516.5063,483.6144 515.1781,481.9738 Q513.8656,480.3175 513.8656,477.1925 Q513.8656,474.0675 515.1781,472.4113 Q516.5063,470.755 519.0063,470.755 Q519.7094,470.755 520.35,470.9113 Q521.0063,471.0675 521.5688,471.3644 L521.5688,474.0831 Q520.9438,473.505 520.35,473.2394 Q519.7563,472.9581 519.1313,472.9581 Q517.7875,472.9581 517.1,474.0363 Q516.4125,475.0988 516.4125,477.1925 Q516.4125,479.2863 517.1,480.3644 Q517.7875,481.4269 519.1313,481.4269 Q519.7563,481.4269 520.35,481.1613 Q520.9438,480.88 521.5688,480.3019 L521.5688,483.0206 Z " fill="#000000"/><text fill="#000000" font-family="sans-serif" font-size="14" lengthAdjust="spacing" textLength="100.7344" x="532.6" y="482.2267">PwdCommand</text><line style="stroke:#181818;stroke-width:0.5;" x1="504.6" x2="635.3344" y1="493.38" y2="493.38"/><line style="stroke:#181818;stroke-width:0.5;" x1="504.6" x2="635.3344" y1="501.38" y2="501.38"/></g><!--class ExitCommand--><g id="elem_ExitCommand"><rect codeLine="30" fill="#F1F1F1" height="48" id="ExitCommand" rx="2.5" ry="2.5" style="stroke:#181818;stroke-width:0.5;" width="130.4648" x="671.74" y="461.38"/><ellipse cx="686.74" cy="477.38" fill="#ADD1B2" rx="11" ry="11" style="stroke:#181818;stroke-width:1.0;"/><path d="M689.7088,483.0206 Q689.1306,483.3175 688.49,483.4581 Q687.8494,483.6144 687.1463,483.6144 Q684.6463,483.6144 683.3181,481.9738 Q682.0056,480.3175 682.0056,477.1925 Q682.0056,474.0675 683.3181,472.4113 Q684.6463,470.755 687.1463,470.755 Q687.8494,470.755 688.49,470.9113 Q689.1463,471.0675 689.7088,471.3644 L689.7088,474.0831 Q689.0838,473.505 688.49,473.2394 Q687.8963,472.9581 687.2713,472.9581 Q685.9275,472.9581 685.24,474.0363 Q684.5525,475.0988 684.5525,477.1925 Q684.5525,479.2863 685.24,480.3644 Q685.9275,481.4269 687.2713,481.4269 Q687.8963,481.4269 688.49,481.1613 Q689.0838,480.88 689.7088,480.3019 L689.7088,483.0206 Z " fill="#000000"/><text fill="#000000" font-family="sans-serif" font-size="14" lengthAdjust="spacing" textLength="98.4648" x="700.74" y="482.2267">ExitCommand</text><line style="stroke:#181818;stroke-width:0.5;" x1="672.74" x2="801.2048" y1="493.38" y2="493.38"/><line style="stroke:#181818;stroke-width:0.5;" x1="672.74" x2="801.2048" y1="501.38" y2="501.38"/></g><!--class GrepCommand--><g id="elem_GrepCommand"><rect codeLine="32" fill="#F1F1F1" height="48" id="GrepCommand" rx="2.5" ry="2.5" style="stroke:#181818;stroke-width:0.5;" width="138.0596" x="836.94" y="461.38"/><ellipse cx="851.94" cy="477.38" fill="#ADD1B2" rx="11" ry="11" style="stroke:#181818;stroke-width:1.0;"/><path d="M854.9088,483.0206 Q854.3306,483.3175 853.69,483.4581 Q853.0494,483.6144 852.3463,483.6144 Q849.8463,483.6144 848.5181,481.9738 Q847.2056,480.3175 847.2056,477.1925 Q847.2056,474.0675 848.5181,472.4113 Q849.8463,470.755 852.3463,470.755 Q853.0494,470.755 853.69,470.9113 Q854.3463,471.0675 854.9088,471.3644 L854.9088,474.0831 Q854.2838,473.505 853.69,473.2394 Q853.0963,472.9581 852.4713,472.9581 Q851.1275,472.9581 850.44,474.0363 Q849.7525,475.0988 849.7525,477.1925 Q849.7525,479.2863 850.44,480.3644 Q851.1275,481.4269 852.4713,481.4269 Q853.0963,481.4269 853.69,481.1613 Q854.2838,480.88 854.9088,480.3019 L854.9088,483.0206 Z " fill="#000000"/><text fill="#000000" font-family="sans-serif" font-size="14" lengthAdjust="spacing" textLength="106.0596" x="865.94" y="482.2267">GrepCommand</text><line style="stroke:#181818;stroke-width:0.5;" x1="837.94" x2="973.9996" y1="493.38" y2="493.38"/><line style="stroke:#181818;stroke-width:0.5;" x1="837.94" x2="973.9996" y1="501.38" y2="501.38"/></g><!--link CLIInterpreter to CommandsParser--><g id="link_CLIInterpreter_CommandsParser"><path codeLine="34" d="M607.63,104.05 C579.57,131.12 549.538,160.0941 524.848,183.9141 " fill="none" id="CLIInterpreter-to-CommandsParser" style="stroke:#181818;stroke-width:1.0;"/><polygon fill="#181818" points="520.53,188.08,529.7843,184.7099,524.1284,184.6084,524.2298,178.9525,520.53,188.08" style="stroke:#181818;stroke-width:1.0;"/></g><!--link CLIInterpreter to Environment--><g id="link_CLIInterpreter_Environment"><path codeLine="35" d="M706.6,104.05 C726,122.66 744.0703,139.9863 764.2403,159.3363 " fill="none" id="CLIInterpreter-to-Environment" style="stroke:#181818;stroke-width:1.0;"/><polygon fill="#181818" points="768.57,163.49,764.8445,154.3729,764.9619,160.0286,759.3062,160.1459,768.57,163.49" style="stroke:#181818;stroke-width:1.0;"/></g><!--link CommandsParser to Command--><g id="link_CommandsParser_Command"><path codeLine="36" d="M487.97,252.97 C487.97,277.73 487.97,306.06 487.97,330.8 " fill="none" id="CommandsParser-to-Command" style="stroke:#181818;stroke-width:1.0;"/><polygon fill="#181818" points="487.97,336.8,491.97,327.8,487.97,331.8,483.97,327.8,487.97,336.8" style="stroke:#181818;stroke-width:1.0;"/></g><!--reverse link Command to EchoCommand--><g id="link_Command_EchoCommand"><path codeLine="37" d="M356.4033,406.6855 C283.0533,427.0055 207.54,447.93 145.19,465.2 " fill="none" id="Command-backto-EchoCommand" style="stroke:#181818;stroke-width:1.0;"/><polygon fill="none" points="373.75,401.88,354.8015,400.9033,358.0052,412.4677,373.75,401.88" style="stroke:#181818;stroke-width:1.0;"/></g><!--reverse link Command to CatCommand--><g id="link_Command_CatCommand"><path codeLine="38" d="M404.0149,409.5053 C363.9649,428.2353 330.39,443.95 293.91,461.02 " fill="none" id="Command-backto-CatCommand" style="stroke:#181818;stroke-width:1.0;"/><polygon fill="none" points="420.32,401.88,401.4732,404.0703,406.5567,414.9403,420.32,401.88" style="stroke:#181818;stroke-width:1.0;"/></g><!--reverse link Command to WcCommand--><g id="link_Command_WcCommand"><path codeLine="39" d="M454.8394,416.3497 C441.3794,435.0897 435.09,443.85 422.8,460.96 " fill="none" id="Command-backto-WcCommand" style="stroke:#181818;stroke-width:1.0;"/><polygon fill="none" points="465.34,401.73,449.9661,412.8495,459.7126,419.85,465.34,401.73" style="stroke:#181818;stroke-width:1.0;"/></g><!--reverse link Command to PwdCommand--><g id="link_Command_PwdCommand"><path codeLine="40" d="M521.0958,416.346 C534.5658,435.086 540.85,443.85 553.14,460.96 " fill="none" id="Command-backto-PwdCommand" style="stroke:#181818;stroke-width:1.0;"/><polygon fill="none" points="510.59,401.73,516.2238,419.848,525.9678,412.8441,510.59,401.73" style="stroke:#181818;stroke-width:1.0;"/></g><!--reverse link Command to ExitCommand--><g id="link_Command_ExitCommand"><path codeLine="41" d="M573.3635,409.3791 C614.2335,428.1091 648.78,443.95 686,461.02 " fill="none" id="Command-backto-ExitCommand" style="stroke:#181818;stroke-width:1.0;"/><polygon fill="none" points="557,401.88,570.8638,414.8336,575.8632,403.9246,557,401.88" style="stroke:#181818;stroke-width:1.0;"/></g><!--reverse link Command to GrepCommand--><g id="link_Command_GrepCommand"><path codeLine="42" d="M621.2142,406.6216 C695.9942,427.0416 773.4,448.18 836.67,465.45 " fill="none" id="Command-backto-GrepCommand" style="stroke:#181818;stroke-width:1.0;"/><polygon fill="none" points="603.85,401.88,619.6337,412.4097,622.7948,400.8335,603.85,401.88" style="stroke:#181818;stroke-width:1.0;"/></g><!--SRC=[TLBBReCm4Bpp5Ni45NwWYhYaKOKKgP4gDMVNRAbLiD7Qa5Hf_xqEJzkY703FpivwnkOrqnhsnwAG1gabj6-uHM2V30wo5wHaWz80hlzJTQ-QXibIdnXfszGEdw7s0DJ9E8b-euYF-ZxrDh66blZLa90L2Dbs9dc4ez1cDpNaguIxbxbVetbZ9DXxlQX8rc0Aqw9dTOV9HAwsoNRYk5ffPqLV5dWIXDme-ev3ZjxWp99uMR0X077FzODnd4DOTezNv9t1-9-KKoZkYLXTPCsOJWeldLanDIpICR5nVWwCActtsojHEk7nJpMDNuw4cG0vym0uNSe0ELn5sFLCs2vGS8-oB0-EVelX-8-2Y-88p2NO_MIPPyWhEBOyV3NdmOv5NzynwXKSkty0]--></g></svg>
