<svg xmlns="http://www.w3.org/2000/svg" xmlns:xlink="http://www.w3.org/1999/xlink" contentStyleType="text/css" height="741px" preserveAspectRatio="none" style="width:563px;height:741px;background:#FFFFFF;" version="1.1" viewBox="0 0 563 741" width="563px" zoomAndPan="magnify"><defs/><g><ellipse cx="301.8547" cy="20" fill="#222222" rx="10" ry="10" style="stroke:#222222;stroke-width:1.0;"/><rect fill="#F1F1F1" height="36.3441" rx="12.5" ry="12.5" style="stroke:#181818;stroke-width:0.5;" width="158.505" x="222.6022" y="50"/><text fill="#000000" font-family="sans-serif" font-size="12" lengthAdjust="spacing" textLength="138.505" x="232.6022" y="72.8281">&#1055;&#1086;&#1083;&#1091;&#1095;&#1072;&#1077;&#1084; &#1089;&#1090;&#1088;&#1086;&#1082;&#1091; &#1074;&#1074;&#1086;&#1076;&#1072;</text><rect fill="#F1F1F1" height="36.3441" rx="12.5" ry="12.5" style="stroke:#181818;stroke-width:0.5;" width="500.7593" x="51.475" y="106.3441"/><text fill="#000000" font-family="sans-serif" font-size="12" lengthAdjust="spacing" textLength="480.7593" x="61.475" y="129.1722">&#1058;&#1086;&#1082;&#1077;&#1085;&#1080;&#1079;&#1080;&#1088;&#1091;&#1077;&#1084; &#1089;&#1090;&#1088;&#1086;&#1082;&#1091; (&#1091;&#1095;&#1080;&#1090;&#1099;&#1074;&#1072;&#1077;&#1084; &#1082;&#1072;&#1074;&#1099;&#1095;&#1082;&#1080;, &#1087;&#1072;&#1081;&#1087;&#1083;&#1072;&#1081;&#1085;&#1099;, &#1087;&#1077;&#1088;&#1077;&#1084;&#1077;&#1085;&#1085;&#1099;&#1077; &#1086;&#1082;&#1088;&#1091;&#1078;&#1077;&#1085;&#1080;&#1103;)</text><rect fill="#F1F1F1" height="36.3441" rx="12.5" ry="12.5" style="stroke:#181818;stroke-width:0.5;" width="130.7968" x="236.4563" y="162.6882"/><text fill="#000000" font-family="sans-serif" font-size="12" lengthAdjust="spacing" textLength="110.7968" x="246.4563" y="185.5163">&#1056;&#1072;&#1079;&#1073;&#1080;&#1088;&#1072;&#1077;&#1084; &#1090;&#1086;&#1082;&#1077;&#1085;&#1099;</text><polygon fill="#F1F1F1" points="184.667,219.0323,419.0423,219.0323,431.0423,231.0323,419.0423,243.0323,184.667,243.0323,172.667,231.0323,184.667,219.0323" style="stroke:#181818;stroke-width:0.5;"/><text fill="#000000" font-family="sans-serif" font-size="11" lengthAdjust="spacing" textLength="234.3753" x="184.667" y="235.3003">&#1045;&#1089;&#1090;&#1100; &#1087;&#1086;&#1076;&#1089;&#1090;&#1072;&#1085;&#1086;&#1074;&#1082;&#1080; &#1087;&#1077;&#1088;&#1077;&#1084;&#1077;&#1085;&#1085;&#1099;&#1093; &#1086;&#1082;&#1088;&#1091;&#1078;&#1077;&#1085;&#1080;&#1103;?</text><text fill="#000000" font-family="sans-serif" font-size="11" lengthAdjust="spacing" textLength="12.5619" x="160.1051" y="227.8094">&#1076;&#1072;</text><text fill="#000000" font-family="sans-serif" font-size="11" lengthAdjust="spacing" textLength="18.4469" x="431.0423" y="227.8094">&#1085;&#1077;&#1090;</text><rect fill="#F1F1F1" height="36.3441" rx="12.5" ry="12.5" style="stroke:#181818;stroke-width:0.5;" width="303.334" x="11" y="253.0323"/><text fill="#000000" font-family="sans-serif" font-size="12" lengthAdjust="spacing" textLength="283.334" x="21" y="275.8604">&#1055;&#1086;&#1076;&#1089;&#1090;&#1072;&#1074;&#1083;&#1103;&#1077;&#1084; &#1079;&#1085;&#1072;&#1095;&#1077;&#1085;&#1080;&#1103; &#1087;&#1077;&#1088;&#1077;&#1084;&#1077;&#1085;&#1085;&#1099;&#1093; &#1086;&#1082;&#1088;&#1091;&#1078;&#1077;&#1085;&#1080;&#1103;</text><rect fill="#F1F1F1" height="36.3441" rx="12.5" ry="12.5" style="stroke:#181818;stroke-width:0.5;" width="222.8974" x="51.2183" y="366.6354"/><text fill="#000000" font-family="sans-serif" font-size="12" lengthAdjust="spacing" textLength="202.8974" x="61.2183" y="389.4635">&#1055;&#1086;&#1074;&#1090;&#1086;&#1088;&#1085;&#1072;&#1103; &#1087;&#1086;&#1076;&#1089;&#1090;&#1072;&#1085;&#1086;&#1074;&#1082;&#1072; &#1079;&#1085;&#1072;&#1095;&#1077;&#1085;&#1080;&#1081;</text><polygon fill="#F1F1F1" points="98.8455,309.3765,226.4886,309.3765,238.4886,321.3765,226.4886,333.3765,98.8455,333.3765,86.8455,321.3765,98.8455,309.3765" style="stroke:#181818;stroke-width:0.5;"/><text fill="#000000" font-family="sans-serif" font-size="11" lengthAdjust="spacing" textLength="12.5619" x="166.667" y="345.1354">&#1076;&#1072;</text><text fill="#000000" font-family="sans-serif" font-size="11" lengthAdjust="spacing" textLength="127.6431" x="98.8455" y="325.6444">&#1054;&#1089;&#1090;&#1072;&#1083;&#1080;&#1089;&#1100; &#1087;&#1086;&#1076;&#1089;&#1090;&#1072;&#1085;&#1086;&#1074;&#1082;&#1080;?</text><rect fill="#F1F1F1" height="36.3441" rx="12.5" ry="12.5" style="stroke:#181818;stroke-width:0.5;" width="179.3971" x="351.3437" y="253.0323"/><text fill="#000000" font-family="sans-serif" font-size="12" lengthAdjust="spacing" textLength="159.3971" x="361.3437" y="275.8604">&#1048;&#1089;&#1087;&#1086;&#1083;&#1100;&#1079;&#1091;&#1077;&#1084; &#1090;&#1086;&#1082;&#1077;&#1085; &#1082;&#1072;&#1082; &#1077;&#1089;&#1090;&#1100;</text><polygon fill="#F1F1F1" points="301.8547,430.9795,313.8547,442.9795,301.8547,454.9795,289.8547,442.9795,301.8547,430.9795" style="stroke:#181818;stroke-width:0.5;"/><polygon fill="#F1F1F1" points="255.3855,474.9795,348.3238,474.9795,360.3238,486.9795,348.3238,498.9795,255.3855,498.9795,243.3855,486.9795,255.3855,474.9795" style="stroke:#181818;stroke-width:0.5;"/><text fill="#000000" font-family="sans-serif" font-size="11" lengthAdjust="spacing" textLength="92.9384" x="255.3855" y="491.2475">&#1045;&#1089;&#1090;&#1100; &#1087;&#1072;&#1081;&#1087;&#1083;&#1072;&#1081;&#1085;&#1099;?</text><text fill="#000000" font-family="sans-serif" font-size="11" lengthAdjust="spacing" textLength="12.5619" x="230.8236" y="483.7565">&#1076;&#1072;</text><text fill="#000000" font-family="sans-serif" font-size="11" lengthAdjust="spacing" textLength="18.4469" x="360.3238" y="483.7565">&#1085;&#1077;&#1090;</text><rect fill="#F1F1F1" height="36.3441" rx="12.5" ry="12.5" style="stroke:#181818;stroke-width:0.5;" width="198.5372" x="104.3485" y="508.9795"/><text fill="#000000" font-family="sans-serif" font-size="12" lengthAdjust="spacing" textLength="178.5372" x="114.3485" y="531.8076">&#1056;&#1072;&#1079;&#1076;&#1077;&#1083;&#1103;&#1077;&#1084; &#1089;&#1090;&#1088;&#1086;&#1082;&#1091; &#1085;&#1072; &#1082;&#1086;&#1084;&#1072;&#1085;&#1076;&#1099;</text><rect fill="#F1F1F1" height="36.3441" rx="12.5" ry="12.5" style="stroke:#181818;stroke-width:0.5;" width="169.221" x="119.0066" y="565.3236"/><text fill="#000000" font-family="sans-serif" font-size="12" lengthAdjust="spacing" textLength="149.221" x="129.0066" y="588.1517">&#1057;&#1086;&#1079;&#1076;&#1072;&#1077;&#1084; &#1094;&#1077;&#1087;&#1086;&#1095;&#1082;&#1091; &#1082;&#1086;&#1084;&#1072;&#1085;&#1076;</text><rect fill="#F1F1F1" height="36.3441" rx="12.5" ry="12.5" style="stroke:#181818;stroke-width:0.5;" width="154.4129" x="322.8857" y="508.9795"/><text fill="#000000" font-family="sans-serif" font-size="12" lengthAdjust="spacing" textLength="134.4129" x="332.8857" y="531.8076">&#1057;&#1086;&#1079;&#1076;&#1072;&#1077;&#1084; &#1086;&#1076;&#1085;&#1091; &#1082;&#1086;&#1084;&#1072;&#1085;&#1076;&#1091;</text><polygon fill="#F1F1F1" points="301.8547,607.6677,313.8547,619.6677,301.8547,631.6677,289.8547,619.6677,301.8547,607.6677" style="stroke:#181818;stroke-width:0.5;"/><rect fill="#F1F1F1" height="36.3441" rx="12.5" ry="12.5" style="stroke:#181818;stroke-width:0.5;" width="218.5054" x="192.602" y="651.6677"/><text fill="#000000" font-family="sans-serif" font-size="12" lengthAdjust="spacing" textLength="198.5054" x="202.602" y="674.4958">&#1042;&#1086;&#1079;&#1074;&#1088;&#1072;&#1097;&#1072;&#1077;&#1084; &#1086;&#1073;&#1098;&#1077;&#1082;&#1090;(&#1099;) Command</text><ellipse cx="301.8547" cy="719.0118" fill="none" rx="11" ry="11" style="stroke:#222222;stroke-width:1.0;"/><ellipse cx="301.8547" cy="719.0118" fill="#222222" rx="6" ry="6" style="stroke:#222222;stroke-width:1.0;"/><line style="stroke:#181818;stroke-width:1.0;" x1="301.8547" x2="301.8547" y1="30" y2="50"/><polygon fill="#181818" points="297.8547,40,301.8547,50,305.8547,40,301.8547,44" style="stroke:#181818;stroke-width:1.0;"/><line style="stroke:#181818;stroke-width:1.0;" x1="301.8547" x2="301.8547" y1="86.3441" y2="106.3441"/><polygon fill="#181818" points="297.8547,96.3441,301.8547,106.3441,305.8547,96.3441,301.8547,100.3441" style="stroke:#181818;stroke-width:1.0;"/><line style="stroke:#181818;stroke-width:1.0;" x1="301.8547" x2="301.8547" y1="142.6882" y2="162.6882"/><polygon fill="#181818" points="297.8547,152.6882,301.8547,162.6882,305.8547,152.6882,301.8547,156.6882" style="stroke:#181818;stroke-width:1.0;"/><line style="stroke:#181818;stroke-width:1.0;" x1="162.667" x2="162.667" y1="333.3765" y2="366.6354"/><polygon fill="#181818" points="158.667,356.6354,162.667,366.6354,166.667,356.6354,162.667,360.6354" style="stroke:#181818;stroke-width:1.0;"/><line style="stroke:#181818;stroke-width:1.0;" x1="162.667" x2="162.667" y1="402.9795" y2="412.9795"/><line style="stroke:#181818;stroke-width:1.0;" x1="162.667" x2="286.1157" y1="412.9795" y2="412.9795"/><polygon fill="#181818" points="282.1157,375.3165,286.1157,365.3165,290.1157,375.3165,286.1157,371.3165" style="stroke:#181818;stroke-width:1.0;"/><line style="stroke:#181818;stroke-width:1.0;" x1="286.1157" x2="286.1157" y1="321.3765" y2="412.9795"/><line style="stroke:#181818;stroke-width:1.0;" x1="286.1157" x2="238.4886" y1="321.3765" y2="321.3765"/><polygon fill="#181818" points="248.4886,317.3765,238.4886,321.3765,248.4886,325.3765,244.4886,321.3765" style="stroke:#181818;stroke-width:1.0;"/><line style="stroke:#181818;stroke-width:1.0;" x1="86.8455" x2="39.2183" y1="321.3765" y2="321.3765"/><polygon fill="#181818" points="35.2183,370.3165,39.2183,380.3165,43.2183,370.3165,39.2183,374.3165" style="stroke:#181818;stroke-width:1.0;"/><line style="stroke:#181818;stroke-width:1.0;" x1="39.2183" x2="39.2183" y1="321.3765" y2="442.9795"/><line style="stroke:#181818;stroke-width:1.0;" x1="39.2183" x2="289.8547" y1="442.9795" y2="442.9795"/><polygon fill="#181818" points="279.8547,438.9795,289.8547,442.9795,279.8547,446.9795,283.8547,442.9795" style="stroke:#181818;stroke-width:1.0;"/><line style="stroke:#181818;stroke-width:1.0;" x1="162.667" x2="162.667" y1="289.3765" y2="309.3765"/><polygon fill="#181818" points="158.667,299.3765,162.667,309.3765,166.667,299.3765,162.667,303.3765" style="stroke:#181818;stroke-width:1.0;"/><line style="stroke:#181818;stroke-width:1.0;" x1="172.667" x2="162.667" y1="231.0323" y2="231.0323"/><line style="stroke:#181818;stroke-width:1.0;" x1="162.667" x2="162.667" y1="231.0323" y2="253.0323"/><polygon fill="#181818" points="158.667,243.0323,162.667,253.0323,166.667,243.0323,162.667,247.0323" style="stroke:#181818;stroke-width:1.0;"/><line style="stroke:#181818;stroke-width:1.0;" x1="431.0423" x2="441.0423" y1="231.0323" y2="231.0323"/><line style="stroke:#181818;stroke-width:1.0;" x1="441.0423" x2="441.0423" y1="231.0323" y2="253.0323"/><polygon fill="#181818" points="437.0423,243.0323,441.0423,253.0323,445.0423,243.0323,441.0423,247.0323" style="stroke:#181818;stroke-width:1.0;"/><line style="stroke:#181818;stroke-width:1.0;" x1="441.0423" x2="441.0423" y1="289.3765" y2="442.9795"/><line style="stroke:#181818;stroke-width:1.0;" x1="441.0423" x2="313.8547" y1="442.9795" y2="442.9795"/><polygon fill="#181818" points="323.8547,438.9795,313.8547,442.9795,323.8547,446.9795,319.8547,442.9795" style="stroke:#181818;stroke-width:1.0;"/><line style="stroke:#181818;stroke-width:1.0;" x1="301.8547" x2="301.8547" y1="199.0323" y2="219.0323"/><polygon fill="#181818" points="297.8547,209.0323,301.8547,219.0323,305.8547,209.0323,301.8547,213.0323" style="stroke:#181818;stroke-width:1.0;"/><line style="stroke:#181818;stroke-width:1.0;" x1="203.6171" x2="203.6171" y1="545.3236" y2="565.3236"/><polygon fill="#181818" points="199.6171,555.3236,203.6171,565.3236,207.6171,555.3236,203.6171,559.3236" style="stroke:#181818;stroke-width:1.0;"/><line style="stroke:#181818;stroke-width:1.0;" x1="243.3855" x2="203.6171" y1="486.9795" y2="486.9795"/><line style="stroke:#181818;stroke-width:1.0;" x1="203.6171" x2="203.6171" y1="486.9795" y2="508.9795"/><polygon fill="#181818" points="199.6171,498.9795,203.6171,508.9795,207.6171,498.9795,203.6171,502.9795" style="stroke:#181818;stroke-width:1.0;"/><line style="stroke:#181818;stroke-width:1.0;" x1="360.3238" x2="400.0922" y1="486.9795" y2="486.9795"/><line style="stroke:#181818;stroke-width:1.0;" x1="400.0922" x2="400.0922" y1="486.9795" y2="508.9795"/><polygon fill="#181818" points="396.0922,498.9795,400.0922,508.9795,404.0922,498.9795,400.0922,502.9795" style="stroke:#181818;stroke-width:1.0;"/><line style="stroke:#181818;stroke-width:1.0;" x1="203.6171" x2="203.6171" y1="601.6677" y2="619.6677"/><line style="stroke:#181818;stroke-width:1.0;" x1="203.6171" x2="289.8547" y1="619.6677" y2="619.6677"/><polygon fill="#181818" points="279.8547,615.6677,289.8547,619.6677,279.8547,623.6677,283.8547,619.6677" style="stroke:#181818;stroke-width:1.0;"/><line style="stroke:#181818;stroke-width:1.0;" x1="400.0922" x2="400.0922" y1="545.3236" y2="619.6677"/><line style="stroke:#181818;stroke-width:1.0;" x1="400.0922" x2="313.8547" y1="619.6677" y2="619.6677"/><polygon fill="#181818" points="323.8547,615.6677,313.8547,619.6677,323.8547,623.6677,319.8547,619.6677" style="stroke:#181818;stroke-width:1.0;"/><line style="stroke:#181818;stroke-width:1.0;" x1="301.8547" x2="301.8547" y1="454.9795" y2="474.9795"/><polygon fill="#181818" points="297.8547,464.9795,301.8547,474.9795,305.8547,464.9795,301.8547,468.9795" style="stroke:#181818;stroke-width:1.0;"/><line style="stroke:#181818;stroke-width:1.0;" x1="301.8547" x2="301.8547" y1="631.6677" y2="651.6677"/><polygon fill="#181818" points="297.8547,641.6677,301.8547,651.6677,305.8547,641.6677,301.8547,645.6677" style="stroke:#181818;stroke-width:1.0;"/><line style="stroke:#181818;stroke-width:1.0;" x1="301.8547" x2="301.8547" y1="688.0118" y2="708.0118"/><polygon fill="#181818" points="297.8547,698.0118,301.8547,708.0118,305.8547,698.0118,301.8547,702.0118" style="stroke:#181818;stroke-width:1.0;"/><!--SRC=[ZLBBQeDG4Dtx5NSPeLyG5rtqIm8nHCYZLA7RH6bBQo1GA7JLrnSOIQhHcFx2p1_rpBsnQH8BHT1xnpbdpfmPF-XS1LQRNcbB9KTyHmcjQADuoY5F42muKfJYsTAI4WUf7n95KaKvPPJpXADJI4jpvOZ4m1fEe19AESQFWl8pHL-uh_4kzRVYMCTM846whe0OhPJcb3AVfYpFRH7o1bX62v5GgmvhRHmxbjTJBNhIicP2Z0xaWjmAvrH4DDJZcuPwvxOA-ku8V331jfGoZjLyARoRcnup019qk0F-ju03pkk-Dt1HucN7MkB7z4_faEJvUq6rf5GyG45HCM-69aSgQItLtL5N2x3SWIygAkWEJQlFFDL49SyegwVzOxMPQw6GhwrsB51vlHFxZsRTOAaPw1AajPs7QrY9z0AtZUvcAKCMt3j2WjijmIq-a2jh9gXV0AUXkKEmNlFg2CPHtLER7dLwAYl7ztlGWXzmB3XiSMohY_5ms1br7SiFnfVV]--></g></svg>