<svg xmlns="http://www.w3.org/2000/svg" xmlns:xlink="http://www.w3.org/1999/xlink" contentStyleType="text/css" height="714px" preserveAspectRatio="none" style="width:1232px;height:714px;background:#FFFFFF;" version="1.1" viewBox="0 0 1232 714" width="1232px" zoomAndPan="magnify"><defs/><g><rect fill="none" height="208.218" style="stroke:#000000;stroke-width:1.5;" width="1093.7109" x="131.9991" y="336.01"/><line style="stroke:#181818;stroke-width:0.5;stroke-dasharray:5.0,5.0;" x1="56" x2="56" y1="84.0679" y2="630.6401"/><line style="stroke:#181818;stroke-width:0.5;stroke-dasharray:5.0,5.0;" x1="195.9991" x2="195.9991" y1="84.0679" y2="630.6401"/><line style="stroke:#181818;stroke-width:0.5;stroke-dasharray:5.0,5.0;" x1="495.6334" x2="495.6334" y1="84.0679" y2="630.6401"/><line style="stroke:#181818;stroke-width:0.5;stroke-dasharray:5.0,5.0;" x1="624.1684" x2="624.1684" y1="84.0679" y2="630.6401"/><line style="stroke:#181818;stroke-width:0.5;stroke-dasharray:5.0,5.0;" x1="832.2026" x2="832.2026" y1="84.0679" y2="630.6401"/><line style="stroke:#181818;stroke-width:0.5;stroke-dasharray:5.0,5.0;" x1="951.3242" x2="951.3242" y1="84.0679" y2="630.6401"/><line style="stroke:#181818;stroke-width:0.5;stroke-dasharray:5.0,5.0;" x1="1155.9204" x2="1155.9204" y1="84.0679" y2="630.6401"/><text fill="#000000" font-family="sans-serif" font-size="14" lengthAdjust="spacing" textLength="97.3276" x="5" y="79.9659">&#1055;&#1086;&#1083;&#1100;&#1079;&#1086;&#1074;&#1072;&#1090;&#1077;&#1083;&#1100;</text><ellipse cx="56.6638" cy="13.5" fill="#E2E2F0" rx="8" ry="8" style="stroke:#181818;stroke-width:0.5;"/><path d="M56.6638,21.5 L56.6638,48.5 M43.6638,29.5 L69.6638,29.5 M56.6638,48.5 L43.6638,63.5 M56.6638,48.5 L69.6638,63.5 " fill="none" style="stroke:#181818;stroke-width:0.5;"/><text fill="#000000" font-family="sans-serif" font-size="14" lengthAdjust="spacing" textLength="97.3276" x="5" y="644.606">&#1055;&#1086;&#1083;&#1100;&#1079;&#1086;&#1074;&#1072;&#1090;&#1077;&#1083;&#1100;</text><ellipse cx="56.6638" cy="657.208" fill="#E2E2F0" rx="8" ry="8" style="stroke:#181818;stroke-width:0.5;"/><path d="M56.6638,665.208 L56.6638,692.208 M43.6638,673.208 L69.6638,673.208 M56.6638,692.208 L43.6638,707.208 M56.6638,692.208 L69.6638,707.208 " fill="none" style="stroke:#181818;stroke-width:0.5;"/><rect fill="#E2E2F0" height="33.0679" rx="2.5" ry="2.5" style="stroke:#181818;stroke-width:0.5;" width="108.0797" x="141.9991" y="50"/><text fill="#000000" font-family="sans-serif" font-size="14" lengthAdjust="spacing" textLength="94.0797" x="148.9991" y="71.9659">CLIInterpreter</text><rect fill="#E2E2F0" height="33.0679" rx="2.5" ry="2.5" style="stroke:#181818;stroke-width:0.5;" width="108.0797" x="141.9991" y="629.6401"/><text fill="#000000" font-family="sans-serif" font-size="14" lengthAdjust="spacing" textLength="94.0797" x="148.9991" y="651.606">CLIInterpreter</text><rect fill="#E2E2F0" height="33.0679" rx="2.5" ry="2.5" style="stroke:#181818;stroke-width:0.5;" width="125.1036" x="433.6334" y="50"/><text fill="#000000" font-family="sans-serif" font-size="14" lengthAdjust="spacing" textLength="111.1036" x="440.6334" y="71.9659">commandsParser</text><rect fill="#E2E2F0" height="33.0679" rx="2.5" ry="2.5" style="stroke:#181818;stroke-width:0.5;" width="125.1036" x="433.6334" y="629.6401"/><text fill="#000000" font-family="sans-serif" font-size="14" lengthAdjust="spacing" textLength="111.1036" x="440.6334" y="651.606">commandsParser</text><rect fill="#E2E2F0" height="33.0679" rx="2.5" ry="2.5" style="stroke:#181818;stroke-width:0.5;" width="98.7557" x="575.1684" y="50"/><text fill="#000000" font-family="sans-serif" font-size="14" lengthAdjust="spacing" textLength="84.7557" x="582.1684" y="71.9659">Environment</text><rect fill="#E2E2F0" height="33.0679" rx="2.5" ry="2.5" style="stroke:#181818;stroke-width:0.5;" width="98.7557" x="575.1684" y="629.6401"/><text fill="#000000" font-family="sans-serif" font-size="14" lengthAdjust="spacing" textLength="84.7557" x="582.1684" y="651.606">Environment</text><rect fill="#E2E2F0" height="33.0679" rx="2.5" ry="2.5" style="stroke:#181818;stroke-width:0.5;" width="136.1215" x="764.2026" y="50"/><text fill="#000000" font-family="sans-serif" font-size="14" lengthAdjust="spacing" textLength="122.1215" x="771.2026" y="71.9659">CommandRegistry</text><rect fill="#E2E2F0" height="33.0679" rx="2.5" ry="2.5" style="stroke:#181818;stroke-width:0.5;" width="136.1215" x="764.2026" y="629.6401"/><text fill="#000000" font-family="sans-serif" font-size="14" lengthAdjust="spacing" textLength="122.1215" x="771.2026" y="651.606">CommandRegistry</text><rect fill="#E2E2F0" height="33.0679" rx="2.5" ry="2.5" style="stroke:#181818;stroke-width:0.5;" width="82.6137" x="910.3242" y="50"/><text fill="#000000" font-family="sans-serif" font-size="14" lengthAdjust="spacing" textLength="68.6137" x="917.3242" y="71.9659">Command</text><rect fill="#E2E2F0" height="33.0679" rx="2.5" ry="2.5" style="stroke:#181818;stroke-width:0.5;" width="82.6137" x="910.3242" y="629.6401"/><text fill="#000000" font-family="sans-serif" font-size="14" lengthAdjust="spacing" textLength="68.6137" x="917.3242" y="651.606">Command</text><rect fill="#E2E2F0" height="33.0679" rx="2.5" ry="2.5" style="stroke:#181818;stroke-width:0.5;" width="118.7896" x="1096.9204" y="50"/><text fill="#000000" font-family="sans-serif" font-size="14" lengthAdjust="spacing" textLength="104.7896" x="1103.9204" y="71.9659">ExternalProcess</text><rect fill="#E2E2F0" height="33.0679" rx="2.5" ry="2.5" style="stroke:#181818;stroke-width:0.5;" width="118.7896" x="1096.9204" y="629.6401"/><text fill="#000000" font-family="sans-serif" font-size="14" lengthAdjust="spacing" textLength="104.7896" x="1103.9204" y="651.606">ExternalProcess</text><polygon fill="#181818" points="184.0389,113.7739,194.0389,117.7739,184.0389,121.7739,188.0389,117.7739" style="stroke:#181818;stroke-width:1.0;"/><line style="stroke:#181818;stroke-width:1.0;" x1="56.6638" x2="190.0389" y1="117.7739" y2="117.7739"/><text fill="#000000" font-family="sans-serif" font-size="13" lengthAdjust="spacing" textLength="92.4171" x="63.6638" y="111.9649">&#1042;&#1074;&#1086;&#1076; &#1082;&#1086;&#1084;&#1072;&#1085;&#1076;&#1099;</text><polygon fill="#181818" points="484.1852,145.4799,494.1852,149.4799,484.1852,153.4799,488.1852,149.4799" style="stroke:#181818;stroke-width:1.0;"/><line style="stroke:#181818;stroke-width:1.0;" x1="196.0389" x2="490.1852" y1="149.4799" y2="149.4799"/><text fill="#000000" font-family="sans-serif" font-size="13" lengthAdjust="spacing" textLength="276.1463" x="203.0389" y="143.6709">parse(environment, input) &#1087;&#1072;&#1088;&#1089;&#1080;&#1085;&#1075; &#1082;&#1086;&#1084;&#1072;&#1085;&#1076;&#1099;</text><line style="stroke:#181818;stroke-width:1.0;" x1="496.1852" x2="538.1852" y1="181.186" y2="181.186"/><line style="stroke:#181818;stroke-width:1.0;" x1="538.1852" x2="538.1852" y1="181.186" y2="194.186"/><line style="stroke:#181818;stroke-width:1.0;" x1="497.1852" x2="538.1852" y1="194.186" y2="194.186"/><polygon fill="#181818" points="507.1852,190.186,497.1852,194.186,507.1852,198.186,503.1852,194.186" style="stroke:#181818;stroke-width:1.0;"/><text fill="#000000" font-family="sans-serif" font-size="13" lengthAdjust="spacing" textLength="114.3611" x="503.1852" y="175.377">&#1055;&#1072;&#1088;&#1089;&#1080;&#1085;&#1075; &#1082;&#1086;&#1084;&#1072;&#1085;&#1076;&#1099;</text><polygon fill="#181818" points="820.2634,221.892,830.2634,225.892,820.2634,229.892,824.2634,225.892" style="stroke:#181818;stroke-width:1.0;"/><line style="stroke:#181818;stroke-width:1.0;" x1="496.1852" x2="826.2634" y1="225.892" y2="225.892"/><text fill="#000000" font-family="sans-serif" font-size="13" lengthAdjust="spacing" textLength="215.6182" x="503.1852" y="220.083">&#1055;&#1086;&#1083;&#1091;&#1095;&#1080;&#1090;&#1100; Command &#1076;&#1083;&#1103; &#1082;&#1086;&#1084;&#1072;&#1085;&#1076;&#1099;</text><polygon fill="#181818" points="507.1852,253.598,497.1852,257.598,507.1852,261.598,503.1852,257.598" style="stroke:#181818;stroke-width:1.0;"/><line style="stroke:#181818;stroke-width:1.0;stroke-dasharray:2.0,2.0;" x1="501.1852" x2="831.2634" y1="257.598" y2="257.598"/><text fill="#000000" font-family="sans-serif" font-size="13" lengthAdjust="spacing" textLength="312.0782" x="513.1852" y="251.789">&#1042;&#1086;&#1079;&#1074;&#1088;&#1072;&#1097;&#1072;&#1077;&#1090; &#1089;&#1086;&#1086;&#1090;&#1074;&#1077;&#1090;&#1089;&#1090;&#1074;&#1091;&#1102;&#1097;&#1080;&#1081; Command &#1086;&#1073;&#1098;&#1077;&#1082;&#1090;</text><polygon fill="#181818" points="207.0389,285.304,197.0389,289.304,207.0389,293.304,203.0389,289.304" style="stroke:#181818;stroke-width:1.0;"/><line style="stroke:#181818;stroke-width:1.0;" x1="201.0389" x2="495.1852" y1="289.304" y2="289.304"/><text fill="#000000" font-family="sans-serif" font-size="13" lengthAdjust="spacing" textLength="256.0482" x="213.0389" y="283.495">&#1042;&#1086;&#1079;&#1074;&#1088;&#1072;&#1097;&#1072;&#1077;&#1090; &#1089;&#1087;&#1080;&#1089;&#1086;&#1082; Command &#1086;&#1073;&#1098;&#1077;&#1082;&#1090;&#1086;&#1074;</text><polygon fill="#181818" points="939.6311,317.01,949.6311,321.01,939.6311,325.01,943.6311,321.01" style="stroke:#181818;stroke-width:1.0;"/><line style="stroke:#181818;stroke-width:1.0;" x1="196.0389" x2="945.6311" y1="321.01" y2="321.01"/><text fill="#000000" font-family="sans-serif" font-size="13" lengthAdjust="spacing" textLength="400.4653" x="203.0389" y="315.201">execute(environment, input, output, args) &#1074;&#1099;&#1087;&#1086;&#1083;&#1085;&#1077;&#1085;&#1080;&#1077; &#1082;&#1086;&#1084;&#1072;&#1085;&#1076;&#1099;</text><path d="M131.9991,336.01 L194.4581,336.01 L194.4581,345.716 L184.4581,355.716 L131.9991,355.716 L131.9991,336.01 " fill="#EEEEEE" style="stroke:#000000;stroke-width:1.5;"/><rect fill="none" height="208.218" style="stroke:#000000;stroke-width:1.5;" width="1093.7109" x="131.9991" y="336.01"/><text fill="#000000" font-family="sans-serif" font-size="13" font-weight="bold" lengthAdjust="spacing" textLength="17.459" x="146.9991" y="350.907">alt</text><text fill="#000000" font-family="sans-serif" font-size="11" font-weight="bold" lengthAdjust="spacing" textLength="128.0501" x="209.4581" y="349.7689">[&#1042;&#1089;&#1090;&#1088;&#1086;&#1077;&#1085;&#1085;&#1072;&#1103; &#1082;&#1086;&#1084;&#1072;&#1085;&#1076;&#1072;]</text><line style="stroke:#181818;stroke-width:1.0;stroke-dasharray:2.0,2.0;" x1="951.6311" x2="993.6311" y1="379.4221" y2="379.4221"/><line style="stroke:#181818;stroke-width:1.0;stroke-dasharray:2.0,2.0;" x1="993.6311" x2="993.6311" y1="379.4221" y2="392.4221"/><line style="stroke:#181818;stroke-width:1.0;stroke-dasharray:2.0,2.0;" x1="952.6311" x2="993.6311" y1="392.4221" y2="392.4221"/><polygon fill="#181818" points="962.6311,388.4221,952.6311,392.4221,962.6311,396.4221,958.6311,392.4221" style="stroke:#181818;stroke-width:1.0;"/><text fill="#000000" font-family="sans-serif" font-size="13" lengthAdjust="spacing" textLength="190.6842" x="958.6311" y="373.6131">&#1042;&#1099;&#1087;&#1086;&#1083;&#1085;&#1077;&#1085;&#1080;&#1077; &#1083;&#1086;&#1075;&#1080;&#1082;&#1080; &#1082;&#1086;&#1084;&#1072;&#1085;&#1076;&#1099;</text><polygon fill="#181818" points="207.0389,420.1281,197.0389,424.1281,207.0389,428.1281,203.0389,424.1281" style="stroke:#181818;stroke-width:1.0;"/><line style="stroke:#181818;stroke-width:1.0;stroke-dasharray:2.0,2.0;" x1="201.0389" x2="950.6311" y1="424.1281" y2="424.1281"/><text fill="#000000" font-family="sans-serif" font-size="13" lengthAdjust="spacing" textLength="125.5541" x="213.0389" y="418.3191">&#1042;&#1086;&#1079;&#1074;&#1088;&#1072;&#1090; &#1088;&#1077;&#1079;&#1091;&#1083;&#1100;&#1090;&#1072;&#1090;&#1072;</text><line style="stroke:#000000;stroke-width:1.0;stroke-dasharray:2.0,2.0;" x1="131.9991" x2="1225.71" y1="433.1281" y2="433.1281"/><text fill="#000000" font-family="sans-serif" font-size="11" font-weight="bold" lengthAdjust="spacing" textLength="113.0792" x="136.9991" y="444.887">[&#1042;&#1085;&#1077;&#1096;&#1085;&#1103;&#1103; &#1082;&#1086;&#1084;&#1072;&#1085;&#1076;&#1072;]</text><polygon fill="#181818" points="1144.3152,468.816,1154.3152,472.816,1144.3152,476.816,1148.3152,472.816" style="stroke:#181818;stroke-width:1.0;"/><line style="stroke:#181818;stroke-width:1.0;" x1="951.6311" x2="1150.3152" y1="472.816" y2="472.816"/><text fill="#000000" font-family="sans-serif" font-size="13" lengthAdjust="spacing" textLength="105.4691" x="958.6311" y="467.007">&#1047;&#1072;&#1087;&#1091;&#1089;&#1082; &#1087;&#1088;&#1086;&#1094;&#1077;&#1089;&#1089;&#1072;</text><polygon fill="#181818" points="962.6311,500.522,952.6311,504.522,962.6311,508.522,958.6311,504.522" style="stroke:#181818;stroke-width:1.0;"/><line style="stroke:#181818;stroke-width:1.0;stroke-dasharray:2.0,2.0;" x1="956.6311" x2="1155.3152" y1="504.522" y2="504.522"/><text fill="#000000" font-family="sans-serif" font-size="13" lengthAdjust="spacing" textLength="125.5541" x="968.6311" y="498.713">&#1042;&#1086;&#1079;&#1074;&#1088;&#1072;&#1090; &#1088;&#1077;&#1079;&#1091;&#1083;&#1100;&#1090;&#1072;&#1090;&#1072;</text><polygon fill="#181818" points="207.0389,532.228,197.0389,536.228,207.0389,540.228,203.0389,536.228" style="stroke:#181818;stroke-width:1.0;"/><line style="stroke:#181818;stroke-width:1.0;stroke-dasharray:2.0,2.0;" x1="201.0389" x2="950.6311" y1="536.228" y2="536.228"/><text fill="#000000" font-family="sans-serif" font-size="13" lengthAdjust="spacing" textLength="125.5541" x="213.0389" y="530.419">&#1042;&#1086;&#1079;&#1074;&#1088;&#1072;&#1090; &#1088;&#1077;&#1079;&#1091;&#1083;&#1100;&#1090;&#1072;&#1090;&#1072;</text><polygon fill="#181818" points="67.6638,570.934,57.6638,574.934,67.6638,578.934,63.6638,574.934" style="stroke:#181818;stroke-width:1.0;"/><line style="stroke:#181818;stroke-width:1.0;" x1="61.6638" x2="195.0389" y1="574.934" y2="574.934"/><text fill="#000000" font-family="sans-serif" font-size="13" lengthAdjust="spacing" textLength="115.3751" x="73.6638" y="569.125">&#1042;&#1099;&#1074;&#1086;&#1076; &#1088;&#1077;&#1079;&#1091;&#1083;&#1100;&#1090;&#1072;&#1090;&#1072;</text><path d="M201,587.934 L201,614.934 L667,614.934 L667,597.934 L657,587.934 L201,587.934 " fill="#FEFFDD" style="stroke:#181818;stroke-width:0.5;"/><path d="M657,587.934 L657,597.934 L667,597.934 L657,587.934 " fill="#FEFFDD" style="stroke:#181818;stroke-width:0.5;"/><text fill="#000000" font-family="sans-serif" font-size="13" lengthAdjust="spacing" textLength="445.1464" x="207" y="606.831">&#1045;&#1089;&#1083;&#1080; &#1087;&#1072;&#1081;&#1087;&#1083;&#1072;&#1081;&#1085;, &#1090;&#1086; &#1087;&#1086;&#1074;&#1090;&#1086;&#1088;&#1080;&#1090;&#1100; execute &#1076;&#1083;&#1103; &#1082;&#1072;&#1078;&#1076;&#1086;&#1081; &#1082;&#1086;&#1084;&#1072;&#1085;&#1076;&#1099; &#1074; &#1094;&#1077;&#1087;&#1086;&#1095;&#1082;&#1077;</text><!--SRC=[hLHBQkD04Dth5BNCW7q1Bx8PiWZC8kG6mjFZ4TWjqMeFoSvsO7u94mWCMUOAYcB5YZoMhr1zexoMRMB9xGc46Ap-LRrwLQ-w_QuE5V4TbpmtLpp3c79Y9fpPjHVvIWVT8FAbfe-VZe-b5YfI0j_wKJWO-FBpYQ_YnicH_1QeK0w4r2wFKz4BOgtENMTrd3F4b7x_H8LT4SUUjuyojGyRJ3l4Dx0eUKfSOFZ72IzuQYwzkbtbkPr8Xo8x7eYN75eKo6YeFn0l4N9anfm3ws47U1l6WGloR_3U5AkpqUl2_E3SJ93qse9uYkthFO0RVsex6Dt0OyQf6O7PBtXcPa8WM7A9ogPsQSPsXg1_O93pqqlGak_DRvI_C1C7-Lqnd96MICN6AvouLcHlls0T4cUYEzGkiLeK3dKr-geNGxhKN28Q2eZoPFZdd3KhvlSrYDgCGREih1QWMwyi9nxXjw7RtgO3PqUGEJOUC2quRqRSGVfVsL2m4L1dviAsFAfZsp_nH3yMrX0HpKzUcEjN21yshnN2tC9q2P77408JP6- -0swCZPLtmwMPzkiitoLJF0-ERjZtAAprM3q2Ja1FXbgG2dfVDOLVTZdzHVvpgnhkFJ_XEw_6HOjiRr8bTMgdG5zToNL3Rbt9X1-nA75pwjgZ8yaMsOBWHXUSFGC0]--></g></svg>